<?xml version="1.0" encoding="utf-8"?>
<!-- Generator: Adobe Illustrator 24.1.1, SVG Export Plug-In . SVG Version: 6.00 Build 0)  -->
<svg version="1.1" id="Layer_1" xmlns="http://www.w3.org/2000/svg" xmlns:xlink="http://www.w3.org/1999/xlink" x="0px" y="0px"
	 viewBox="0 0 500 500" style="enable-background:new 0 0 500 500;" xml:space="preserve">
<style type="text/css">
	.st0{fill:#3BA4FF;}
	.st1{fill:#FFFFFF;}
</style>
<g>
	<path class="st0" d="M111.7,0h276.7C450,0,500,50,500,111.7v276.7C500,450,450,500,388.3,500H111.7C50,500,0,450,0,388.3V111.7
		C0,50,50,0,111.7,0z"/>
	<path class="st1" d="M250,65.2c30.7,0,55.7,24.9,55.7,55.7c0,30.7-24.9,55.7-55.7,55.7c-30.7,0-55.7-24.9-55.7-55.7
		C194.3,90.1,219.3,65.2,250,65.2z"/>
	<path class="st1" d="M372.4,277.1c30.7,0,55.7,24.9,55.7,55.7c0,30.7-24.9,55.7-55.7,55.7s-55.7-24.9-55.7-55.7
		C316.8,302.1,341.7,277.1,372.4,277.1z"/>
	<path class="st1" d="M128.3,277.1c30.7,0,55.7,24.9,55.7,55.7c0,30.7-24.9,55.7-55.7,55.7c-30.7,0-55.7-24.9-55.7-55.7
		C72.6,302.1,97.5,277.1,128.3,277.1z"/>
	<path class="st1" d="M131.1,241.9c-0.1-48.9,19-95.9,53.2-130.8l0.2-1.2C119.3,139,80.9,207.5,90.2,278.3c11.1-7.8,24.4-12,38.1-12
		c1.5,0,3,0,4.5,0.2C131.7,258.4,131.1,250.2,131.1,241.9z"/>
	<path class="st1" d="M311.2,358.5c-43.3,31.8-98.1,43.5-150.5,32.3l-0.5,0.3c54.5,36.5,125.6,36.5,180-0.2
		C327.2,383.6,317,372.2,311.2,358.5z"/>
	<path class="st1" d="M307.2,154.6c50.6,23.8,87.9,68.8,101.9,122.9l0.7,0.4c9.1-70.7-29.3-138.9-94.3-167.9
		c0.6,3.6,0.9,7.3,0.9,10.9C316.4,132.7,313.3,144.4,307.2,154.6z"/>
</g>
</svg>
