<?xml version="1.0" standalone="no"?>
<!DOCTYPE svg PUBLIC "-//W3C//DTD SVG 20010904//EN"
 "http://www.w3.org/TR/2001/REC-SVG-20010904/DTD/svg10.dtd">
<svg version="1.0" xmlns="http://www.w3.org/2000/svg"
 width="1280.000000pt" height="853.000000pt" viewBox="0 0 1280.000000 853.000000"
 preserveAspectRatio="xMidYMid meet">
<metadata>
Created by potrace 1.15, written by Peter Selinger 2001-2017
</metadata>
<g transform="translate(0.000000,853.000000) scale(0.100000,-0.100000)"
fill="#3f51b5" stroke="none">
<path d="M6195 7770 c-87 -25 -235 -108 -235 -131 0 -6 -8 -23 -19 -37 -24
-34 -41 -117 -46 -222 -2 -45 -10 -89 -16 -96 -32 -39 2 -193 53 -243 42 -41
93 -177 71 -190 -8 -4 -36 -39 -61 -76 -44 -65 -53 -72 -147 -120 -55 -28
-129 -71 -165 -97 -36 -25 -119 -74 -185 -108 -66 -34 -129 -71 -140 -82 -21
-19 -26 -94 -26 -376 l0 -93 -35 43 c-18 24 -49 75 -68 113 -60 123 -114 186
-193 228 l-70 36 -6 92 c-14 191 -1 324 40 402 42 81 54 191 28 254 -42 100
-213 255 -313 283 -107 29 -234 -9 -308 -93 -69 -78 -181 -327 -239 -530 -22
-78 -28 -171 -15 -225 11 -46 10 -54 -14 -100 -28 -56 -62 -74 -156 -87 -101
-13 -202 -51 -239 -89 -31 -32 -34 -39 -32 -99 1 -68 5 -60 -90 -185 -19 -26
-48 -68 -63 -94 -15 -27 -47 -69 -70 -95 -23 -27 -63 -75 -88 -108 -82 -108
-82 -109 -74 35 10 181 8 199 -20 256 -27 56 -79 104 -161 148 -28 16 -64 41
-79 57 -27 28 -27 29 -14 85 10 42 26 72 62 113 66 77 73 114 59 312 -14 204
-43 290 -134 400 -51 60 -77 82 -142 116 -76 40 -137 54 -150 34 -3 -6 -27
-13 -53 -16 -89 -12 -101 -16 -145 -56 -79 -69 -128 -159 -172 -312 -18 -63
-23 -339 -7 -345 7 -2 12 -19 12 -37 0 -19 20 -76 45 -130 l45 -97 -56 -59
c-31 -32 -66 -61 -78 -65 -11 -3 -67 -28 -122 -55 -97 -46 -103 -50 -128 -101
-14 -28 -26 -59 -26 -68 0 -9 -11 -31 -25 -50 -14 -19 -48 -73 -76 -121 -29
-48 -77 -117 -108 -152 -31 -36 -85 -102 -121 -147 -36 -44 -90 -100 -120
-123 -52 -41 -55 -46 -72 -117 -23 -100 -23 -194 1 -246 25 -56 116 -99 211
-99 36 0 74 3 85 7 15 6 36 -4 84 -39 60 -45 63 -49 58 -81 -3 -18 -20 -63
-38 -98 -24 -51 -30 -73 -26 -102 8 -48 25 -62 83 -70 45 -7 50 -10 61 -42 7
-19 10 -49 7 -67 -4 -24 0 -34 14 -42 38 -20 46 -62 34 -189 -22 -227 -23
-268 -12 -402 14 -165 47 -283 190 -675 34 -93 71 -205 81 -248 23 -93 52
-167 90 -222 36 -54 59 -111 59 -147 0 -31 25 -181 65 -383 13 -66 29 -160 34
-210 6 -49 18 -112 26 -140 9 -27 18 -86 21 -130 3 -44 13 -99 21 -123 13 -36
15 -72 9 -211 -3 -93 -11 -182 -17 -199 -6 -18 -26 -41 -46 -53 -42 -26 -60
-65 -69 -151 -5 -52 -3 -66 10 -77 41 -34 233 22 324 95 77 62 73 60 61 23 -7
-19 -31 -54 -54 -79 -26 -27 -48 -61 -54 -85 -6 -22 -17 -49 -25 -60 -22 -28
-19 -62 5 -86 19 -19 28 -21 82 -14 80 9 231 57 282 90 60 40 76 68 85 148 8
64 15 92 37 147 3 9 10 -9 17 -40 6 -30 16 -55 21 -55 6 0 13 38 17 85 7 100
19 148 52 219 27 59 25 79 -10 112 -32 30 -30 45 6 58 18 6 34 21 40 36 12 33
12 293 0 485 -27 422 -29 445 -50 505 -12 33 -25 80 -30 105 -5 25 -17 70 -28
100 -10 30 -22 93 -25 139 -5 67 -12 92 -32 121 -28 40 -33 97 -13 133 11 19
16 80 18 217 0 14 -2 55 -6 91 -7 75 27 322 51 368 11 22 12 36 4 62 -8 27 -7
44 6 79 26 71 36 137 36 247 l-1 102 -55 116 c-30 64 -55 119 -55 124 0 4 -9
16 -20 26 -28 26 -22 43 25 70 32 18 39 27 36 46 -2 13 -4 58 -5 99 -2 53 -8
87 -23 115 -11 22 -33 81 -48 130 -15 50 -40 119 -56 154 -33 72 -37 126 -13
153 16 17 19 15 53 -31 20 -27 66 -96 101 -152 36 -57 83 -122 106 -145 22
-22 75 -81 118 -132 104 -124 116 -132 186 -132 64 0 99 -20 125 -70 14 -28
14 -28 -19 -34 -43 -8 -54 -22 -71 -88 -7 -29 -19 -73 -26 -97 -15 -54 -6 -63
89 -85 36 -8 69 -21 73 -28 5 -7 9 -39 9 -70 0 -53 2 -59 35 -83 25 -20 38
-41 50 -83 17 -58 63 -171 138 -342 23 -52 70 -141 105 -198 83 -138 94 -160
142 -290 22 -60 47 -123 55 -139 8 -15 15 -43 15 -60 0 -18 8 -51 17 -74 14
-37 15 -52 5 -111 -7 -38 -12 -87 -12 -111 -1 -23 -8 -60 -16 -82 -9 -22 -18
-53 -21 -70 -3 -16 -19 -75 -35 -130 -29 -94 -31 -113 -35 -300 -5 -206 2
-281 43 -470 20 -92 16 -121 -26 -169 -36 -40 -69 -111 -70 -147 0 -14 21 -68
46 -119 38 -79 47 -110 56 -185 10 -91 21 -120 44 -111 19 7 32 -14 48 -79 22
-81 37 -100 102 -125 131 -49 231 -52 296 -9 51 32 55 52 25 113 -63 127 -69
146 -57 177 7 16 31 41 55 57 42 28 59 34 190 72 97 27 116 47 109 108 -9 66
-23 84 -101 127 -124 68 -129 74 -163 184 -27 88 -30 112 -30 227 0 89 7 166
21 244 12 63 36 209 53 323 l33 209 56 52 c32 29 57 59 57 68 0 8 9 35 19 59
15 36 20 79 25 234 8 226 22 389 41 465 72 290 74 301 83 500 8 191 2 303 -19
368 -8 24 -8 41 1 62 10 24 9 38 -5 79 -9 29 -15 72 -13 106 l3 57 100 -198
c99 -196 101 -199 143 -214 23 -9 50 -23 59 -33 12 -11 29 -90 59 -269 23
-139 52 -296 63 -348 11 -52 25 -140 31 -195 6 -55 23 -149 37 -210 23 -101
25 -132 28 -390 4 -385 21 -749 45 -940 10 -88 24 -209 29 -268 8 -84 16 -117
35 -150 24 -41 25 -44 16 -167 -5 -69 -14 -141 -20 -160 -15 -53 -12 -90 14
-145 25 -55 74 -104 138 -136 32 -17 54 -20 100 -17 128 9 151 98 103 405
l-19 123 22 182 c12 101 22 215 22 253 0 39 5 183 12 321 12 247 11 252 -12
372 -26 137 -24 267 5 357 15 47 20 89 45 395 6 69 19 196 28 284 17 144 20
160 42 178 22 18 25 18 36 4 6 -9 21 -65 33 -124 36 -181 69 -300 112 -406 36
-89 42 -115 50 -218 4 -68 15 -132 25 -155 13 -31 17 -81 19 -268 2 -126 8
-259 14 -295 5 -36 15 -126 22 -201 l11 -137 -28 -58 c-23 -49 -29 -78 -35
-169 -4 -60 -11 -127 -17 -148 -15 -57 -4 -157 22 -185 32 -36 110 -72 155
-72 46 0 87 -30 122 -88 53 -88 94 -115 234 -156 151 -44 221 -30 241 48 13
53 -30 105 -221 270 -57 50 -106 129 -118 193 -9 44 28 284 49 325 15 29 17
71 19 328 2 235 5 311 19 375 21 99 53 355 66 535 5 74 12 153 15 175 16 123
27 343 35 685 5 212 13 404 18 427 5 23 20 55 34 72 23 26 27 43 33 133 4 57
13 141 21 188 8 47 13 128 12 180 l-3 95 101 3 c90 2 102 1 106 -15 3 -10 -1
-89 -8 -176 -17 -207 -33 -548 -26 -567 3 -8 18 -26 34 -40 28 -24 31 -32 48
-170 10 -80 21 -212 24 -295 12 -266 36 -669 43 -695 3 -14 9 -146 12 -295 l7
-270 72 -350 c39 -192 78 -391 87 -441 8 -50 24 -127 35 -169 11 -43 20 -103
20 -134 l0 -56 -76 -60 c-61 -48 -82 -72 -105 -120 -68 -141 -12 -173 208
-116 40 10 86 27 102 37 212 134 219 137 233 89 4 -16 5 -64 2 -106 -7 -90 2
-112 51 -130 35 -13 36 -13 28 -59 -17 -106 3 -190 52 -212 19 -8 38 -5 98 17
152 55 197 93 212 180 4 22 28 103 52 180 50 155 50 158 14 329 -14 63 -21
132 -20 190 1 50 -2 285 -6 521 -5 386 -8 439 -27 514 -16 66 -19 105 -15 175
7 128 44 554 62 721 8 77 22 221 30 320 9 99 18 212 22 250 3 39 10 76 16 83
5 7 27 15 49 18 21 4 48 14 60 23 l20 17 -27 210 c-23 181 -64 408 -107 592
-11 48 -10 56 11 105 46 103 70 175 102 307 29 118 34 131 40 100 3 -19 20
-96 38 -170 17 -74 40 -173 51 -220 11 -47 43 -156 72 -242 l52 -158 -23 -52
c-38 -87 -58 -150 -65 -211 -3 -32 -13 -72 -21 -88 -24 -44 -35 -124 -26 -172
5 -29 3 -61 -5 -95 -18 -68 -36 -220 -30 -240 6 -20 33 -203 46 -310 5 -41 17
-88 29 -107 33 -56 42 -102 51 -265 6 -106 16 -179 30 -230 17 -58 20 -87 15
-130 -4 -30 -10 -163 -12 -295 -11 -589 4 -1241 32 -1368 20 -94 74 -201 137
-274 29 -34 65 -79 79 -100 14 -21 61 -62 104 -92 62 -43 88 -55 127 -59 45
-4 52 -2 83 28 18 17 40 51 50 75 14 38 22 46 62 59 57 19 90 20 168 1 33 -8
77 -15 97 -15 21 0 82 -15 135 -34 147 -50 164 -51 228 -22 44 20 55 30 55 49
0 43 -53 104 -176 200 -44 35 -153 158 -172 194 -10 18 -8 36 7 95 11 40 29
147 41 238 12 91 28 179 35 196 7 16 24 73 39 125 15 52 36 123 46 159 19 65
41 169 66 310 11 62 38 556 49 905 2 44 9 109 16 145 9 45 13 161 14 373 0
223 3 307 11 307 7 0 21 8 33 18 21 17 22 20 12 142 -10 123 -10 126 18 216
16 50 36 105 45 122 9 18 21 69 26 115 6 45 15 102 20 127 6 25 12 113 14 195
3 150 3 150 -32 240 -31 83 -34 100 -35 210 -2 109 -5 125 -30 180 -16 33 -49
141 -73 240 -83 335 -90 357 -122 386 -16 15 -51 34 -78 44 -106 39 -121 75
-128 315 -3 112 -13 215 -26 285 -11 61 -27 155 -35 210 -8 55 -17 114 -20
131 -3 17 -23 58 -45 92 -73 111 -139 162 -211 162 -18 0 -56 7 -85 17 -51 16
-54 16 -105 -7 -72 -31 -123 -74 -170 -143 -54 -82 -73 -151 -114 -419 -19
-128 -46 -267 -59 -309 -14 -41 -27 -92 -31 -112 -9 -47 -24 -58 -88 -68 -47
-8 -59 -15 -116 -74 -35 -36 -68 -65 -74 -65 -5 0 -31 19 -56 43 -39 36 -61
47 -131 66 -101 27 -150 54 -227 124 -32 29 -72 63 -90 75 -18 13 -42 36 -53
52 -18 26 -19 34 -9 75 8 33 19 50 39 60 29 15 39 36 65 128 13 45 14 65 6 89
-14 40 -14 139 0 175 20 51 12 163 -15 225 -25 56 -27 58 -126 107 -116 59
-158 64 -256 31 -75 -25 -159 -97 -185 -157 -10 -23 -25 -90 -34 -148 -10 -68
-25 -125 -42 -160 -27 -54 -27 -56 -14 -142 8 -59 19 -95 31 -108 10 -11 32
-51 49 -90 17 -38 42 -92 56 -119 14 -27 25 -58 25 -68 0 -29 -99 -167 -138
-192 -20 -13 -84 -36 -142 -51 -131 -34 -154 -46 -169 -87 -7 -18 -19 -48 -27
-66 -8 -18 -14 -40 -14 -49 0 -16 -69 -177 -95 -223 -8 -14 -35 -66 -59 -115
-25 -50 -60 -105 -79 -123 l-35 -34 -11 33 c-6 18 -11 101 -11 198 0 91 -7
225 -16 296 -8 72 -19 166 -24 210 -14 128 -39 261 -56 305 -22 54 -49 73
-147 106 -78 25 -353 136 -427 172 -19 9 -50 27 -68 41 -29 21 -32 27 -26 60
3 20 14 57 24 82 11 25 22 66 26 90 4 24 18 65 31 90 13 25 29 82 35 126 12
80 11 82 -14 120 -15 21 -38 83 -52 137 -43 164 -88 227 -204 285 -79 39 -89
41 -157 21z m-2391 -2412 c27 -42 96 -249 95 -286 -1 -48 -71 -257 -85 -257
-31 0 -210 321 -200 358 3 12 24 45 46 72 128 156 120 150 144 113z m6050
-2563 c38 -81 40 -94 26 -248 -6 -78 -15 -293 -19 -477 -8 -320 -9 -338 -33
-410 -29 -85 -24 -93 -57 100 -10 63 -26 153 -35 199 -9 46 -16 129 -17 185
-1 121 -10 182 -38 259 -30 82 -17 157 53 297 72 143 76 150 85 150 5 0 20
-25 35 -55z"/>
</g>
</svg>
